<svg width="1252" height="551" viewBox="0 0 1252 551" fill="none" xmlns="http://www.w3.org/2000/svg">
<path d="M1242.42 59.918C1205.47 76.7725 1121.87 123.568 1067.24 238.047C998.947 381.145 892.385 629.005 792.422 629.996C712.451 630.79 637.913 500.999 610.64 436.004C562.473 337.521 514.965 132.954 453.602 68.841C403.455 22.5738 320.977 -23.0325 267.861 -12.4572C214.745 -1.88179 129.628 150.8 36.9224 153.113C-15.5337 155.427 -63.261 81.1789 -67 44.055M1242.42 83.0516C1209.21 95.2794 1127.68 149.61 1067.24 269.112C991.689 418.489 909.211 604.88 809.247 617.438C729.277 627.485 656.278 519.175 629.775 463.765C539.049 269.112 486.395 114.778 439.416 75.1201C380.691 25.5481 300.522 -4.00819 267.861 1.09253C183.733 15.6337 133.257 171.951 30.6541 171.29C-18.5029 171.29 -60.7317 104.533 -67 75.1201M1242.42 105.524C1208.77 122.709 1126.62 184.972 1067.24 296.542C993.009 436.004 907.338 613.142 817.165 608.515C726.992 603.889 666.342 510.032 641.652 473.018C531.131 344.462 522.553 41.7416 267.861 16.2946C189.672 7.04117 136.886 193.102 30.6541 189.136C-12.8944 191.119 -58.5322 133.835 -62.0513 106.185M1242.42 126.675C1205.91 151.461 1121.28 222.184 1074.83 306.787C1016.76 412.54 933.731 588.686 830.362 596.287C747.666 602.368 670.099 510.473 641.652 463.765C550.266 344.792 485.603 153.113 431.168 110.812C384.98 75.1201 315.353 25.2176 259.283 30.8358C149.093 44.055 141.175 213.591 24.0558 208.965C-14.8739 210.947 -50.8342 160.054 -62.0513 133.285M1242.42 150.47C1199.2 178.891 1114.68 265.08 1070.87 340.165C1016.1 434.022 940.396 585.382 843.228 585.382C765.494 585.382 701.968 528.319 679.922 499.787C599.423 424.107 540.039 311.413 498.47 231.107C446.674 140.886 387.949 66.8581 259.283 43.7245C144.804 39.0978 142.824 225.158 30.6541 228.132C-9.26535 231.107 -47.5351 189.136 -62.0513 159.062M1242.42 172.612C1204.81 203.346 1117.32 292.576 1080.11 352.063C1033.59 426.421 963.316 558.282 863.353 573.484C783.382 585.646 700.486 517.964 669.035 482.602C601.415 426.421 544.987 341.157 490.552 239.369C424.899 128.597 358.917 79.4163 250.706 57.9351C130.618 50.3341 143.814 247.961 24.0558 247.961C-5.96624 250.275 -48.5249 214.583 -62.0513 185.501M1245.39 191.78C1203.49 229.454 1112.9 330.846 1067.24 394.034C1010.16 473.018 949.13 572.493 852.136 565.222C774.541 559.406 711.593 514.769 689.819 493.178C557.194 407.583 516.945 289.536 474.716 231.107C421.93 158.071 351.659 87.3479 238.499 68.841C112.802 75.1201 150.412 264.816 24.0558 268.782C-6.95598 269.773 -53.1436 231.107 -62.0513 208.965M1245.39 213.922C1245.39 213.261 1113.1 359.664 1070.87 412.871C1028.64 466.078 971.234 552.003 873.58 553.986C775.926 555.969 624.496 457.816 561.483 384.119C487.253 302.16 438.756 119.074 231.241 82.3907C101.585 85.6955 167.238 264.485 27.025 289.932C-18.173 292.576 -51.1642 254.24 -62.0513 234.081M1245.39 235.734C1193.16 296.983 1085.91 422.455 1074.83 434.352C1060.97 449.224 993.668 540.436 897.334 545.063C801 549.69 667.385 482.933 571.051 409.236C482.304 320.336 447.993 210.287 360.566 151.131C292.275 110.812 260.603 91.3136 224.313 93.9575C119.4 109.16 142.813 174.836 122.238 228.132C107.645 265.936 85.2507 299.395 24.0558 310.092C-9.92519 315.71 -50.5043 279.687 -62.0513 256.884M1245.39 257.545C1210.42 303.262 1129.59 404.873 1086.04 445.588C1031.61 496.482 985.421 540.698 897.334 537.132C809.247 533.565 655.838 477.975 592.495 436.004C485.603 371.891 421.6 137.911 222.003 106.516C169.425 114.12 146.427 131.247 135.908 153.113M-62.0513 283.323C-50.7243 299.737 -18.3709 332.498 20.4268 332.234C97.2963 325.294 121.663 265.421 125.107 223.506C127.162 198.499 126.002 173.705 135.908 153.113M1245.39 281.34C1210.42 334.878 1138.5 431.378 1063.28 489.542C1001.52 527.614 956.828 532.945 942.202 530.852C861.703 537.132 626.806 463.765 590.515 447.571C538.719 416.506 509.687 376.518 435.127 270.764C360.566 165.011 258.294 121.387 222.003 119.735C185.713 118.083 141.935 134.937 135.908 153.113M135.908 153.113C135.464 197.728 129.347 283.323 97.2964 316.371C65.2949 344.792 1.95174 386.102 -62.0513 310.092M-62.0513 336.86C-53.3636 350.52 -25.4311 378.038 16.7977 378.831C72.8828 372.552 119.4 326.616 127.978 270.764C127.318 236.725 127.318 168.316 133.917 160.715C140.515 153.113 134.577 139.233 204.518 130.971C274.459 122.709 389.599 235.734 404.445 253.249C419.291 270.764 515.295 414.193 551.256 436.004C578.309 475.332 852.136 512.015 937.913 527.217C962.327 528.571 1021.71 534.488 1076.81 499.787C1121.01 472.688 1203.16 380.814 1249.02 296.542M1249.02 320.006C1221.31 370.9 1151.1 480.487 1091.98 511.685C1024.68 551.342 945.501 520.277 909.541 515.981C873.58 511.685 682.231 477.645 621.857 476.984C573.558 476.455 529.812 439.089 513.976 420.472C479.665 379.492 407.744 279.82 393.228 261.841C375.083 235.403 272.466 147.583 210.456 143.199C148.446 138.815 127.55 164.68 126.329 175.256C125.107 185.831 137.943 285.306 122.238 318.354C106.534 351.402 84.7597 388.746 20.4268 399.982C-23.7815 405.27 -56.0029 374.645 -62.0513 356.359M1251 340.165C1229.34 384.119 1173.14 480.818 1121.67 515.981C1057.34 559.935 1026.33 538.784 950.78 519.286C875.23 499.787 765.369 477.315 626.806 487.559C518.924 506.397 426.219 313.727 388.279 278.035C368.154 255.562 280.728 157.74 193.631 155.427C123.953 153.576 115.551 185.941 120.06 202.355C126.614 238.047 135.896 310.092 125.107 339.174C110.493 368.917 81.1307 414.854 13.1687 423.446C-24.1114 430.386 -59.6319 400.313 -62.0513 384.45M1251 362.638C1227.58 416.616 1164.37 530.456 1098.91 553.986C1054.04 576.128 976.843 511.685 915.149 502.762C852.136 482.602 682.231 487.229 628.455 498.465C574.68 509.702 527.502 486.238 478.345 420.472C426.549 355.698 373.103 263.163 298.213 213.261C235.53 170.629 213.096 164.019 180.104 166.663C147.113 169.307 114.782 176.247 114.782 196.076C114.782 215.905 140.316 313.727 131.277 339.174C125.107 362.968 116.431 410.888 33.6233 443.275C-9.92514 460.791 -49.8445 434.022 -62.0513 413.862M1251 383.128C1238.02 415.625 1204.09 489.08 1172.15 522.921C1132.23 565.222 1113.1 576.459 1091.98 577.45C1043.16 575.798 994.988 513.998 928.346 498.135C879.849 482.602 778.565 475.332 673.983 499.787C628.455 510.693 585.897 526.226 548.287 504.414C488.902 476.984 398.176 327.277 378.382 308.109C362.876 289.602 310.75 232.759 259.613 202.685C214.415 178.891 191.651 175.256 153.711 178.891C116.784 184.972 108.413 197.067 108.843 202.355C105.845 238.708 144.804 301.499 131.277 374.535C114.782 411.549 95.6468 435.674 65.9547 451.868C36.2626 468.061 -14.5439 488.551 -62.0513 439.64M1251 404.939C1232.3 461.562 1177.3 579.433 1106.83 597.94C1050.74 604.549 1013.46 491.525 888.426 481.611C786.813 467.07 677.612 511.685 602.722 531.183C527.832 550.681 433.807 407.914 426.219 396.016C418.631 384.119 334.567 261.841 267.531 222.514C234.21 196.076 132.597 164.019 97.2964 218.218C86.4093 247.961 148.433 313.727 135.908 385.111C126.329 418.82 98.9459 463.434 49.7889 483.924C0.631992 504.414 -56.1128 482.272 -62.0513 467.07" stroke="url(#paint0_linear_26_217)" stroke-opacity="0.7"/>
<defs>
<linearGradient id="paint0_linear_26_217" x1="333.421" y1="307.372" x2="1236.56" y2="320.551" gradientUnits="userSpaceOnUse">
<stop stop-color="#8B3B5B"/>
<stop offset="1" stop-color="#8B3B5B" stop-opacity="0"/>
</linearGradient>
</defs>
</svg>
