<svg width="82" height="51" viewBox="0 0 82 51" fill="none" xmlns="http://www.w3.org/2000/svg">
<path d="M0.48415 49.2918V41.8838L17.7933 25.8568C19.2654 24.4322 20.5 23.15 21.4973 22.0103C22.5103 20.8706 23.278 19.7547 23.8004 18.6625C24.3228 17.5545 24.5839 16.3594 24.5839 15.0772C24.5839 13.6526 24.2594 12.4258 23.6104 11.3969C22.9615 10.3522 22.075 9.55285 20.9512 8.99883C19.8273 8.42899 18.5531 8.14407 17.1284 8.14407C15.6405 8.14407 14.3425 8.44482 13.2345 9.04632C12.1264 9.64783 11.2717 10.5105 10.6702 11.6344C10.0687 12.7582 9.76791 14.0958 9.76791 15.647H0.00927734C0.00927734 12.4654 0.729501 9.70323 2.16995 7.36053C3.61039 5.01782 5.6286 3.20539 8.22457 1.92323C10.8205 0.641078 13.8122 0 17.1997 0C20.6821 0 23.7133 0.617335 26.2935 1.852C28.8894 3.07084 30.9077 4.76456 32.3481 6.93314C33.7885 9.10172 34.5088 11.5869 34.5088 14.3886C34.5088 16.2248 34.1447 18.0372 33.4166 19.8259C32.7043 21.6146 31.43 23.6012 29.5938 25.7856C27.7577 27.9542 25.1696 30.558 21.8297 33.5972L14.7303 40.5541V40.8865H35.1498V49.2918H0.48415Z" fill="#841431"/>
<path d="M61.6655 50.3602C57.5816 50.3444 54.0676 49.3393 51.1234 47.3448C48.195 45.3503 45.9393 42.4615 44.3564 38.6784C42.7894 34.8952 42.0137 30.3444 42.0296 25.0258C42.0296 19.723 42.8131 15.2038 44.3802 11.4682C45.9631 7.73251 48.2187 4.89119 51.1471 2.94421C54.0913 0.981404 57.5975 0 61.6655 0C65.7336 0 69.2318 0.981404 72.1602 2.94421C75.1044 4.90702 77.368 7.75625 78.9509 11.4919C80.5338 15.2118 81.3174 19.723 81.3015 25.0258C81.3015 30.3602 80.5101 34.919 78.9272 38.7021C77.3601 42.4853 75.1124 45.3741 72.184 47.3685C69.2556 49.363 65.7495 50.3602 61.6655 50.3602ZM61.6655 41.8363C64.4515 41.8363 66.6755 40.4354 68.3375 37.6337C69.9996 34.8319 70.8227 30.6293 70.8068 25.0258C70.8068 21.3376 70.4269 18.2668 69.6672 15.8133C68.9232 13.3597 67.8626 11.5157 66.4855 10.281C65.1242 9.04632 63.5175 8.42899 61.6655 8.42899C58.8955 8.42899 56.6794 9.81404 55.0173 12.5841C53.3553 15.3542 52.5163 19.5014 52.5005 25.0258C52.5005 28.7614 52.8725 31.8798 53.6165 34.3808C54.3763 36.8659 55.4447 38.7338 56.8218 39.9843C58.199 41.2189 59.8135 41.8363 61.6655 41.8363Z" fill="#841431"/>
<path d="M4.90039 13.1862C6.57194 1.15108 27.2992 0.616176 28.6364 13.1862C28.9707 24.2185 11.2523 37.9252 4.90039 45.28H31.3109M62.0674 4.49418C43.3461 4.49418 41.6745 45.28 62.0674 45.28C82.4604 45.28 79.1173 4.49418 62.0674 4.49418Z" stroke="white"/>
</svg>
