<svg width="86" height="68" viewBox="0 0 86 68" fill="none" xmlns="http://www.w3.org/2000/svg">
<path d="M2.84694 49.2918V41.8838L20.156 25.8568C21.6282 24.4322 22.8628 23.15 23.8601 22.0103C24.8731 20.8706 25.6408 19.7547 26.1632 18.6625C26.6855 17.5545 26.9467 16.3594 26.9467 15.0772C26.9467 13.6526 26.6222 12.4258 25.9732 11.3969C25.3242 10.3522 24.4378 9.55285 23.314 8.99883C22.1901 8.42899 20.9158 8.14407 19.4912 8.14407C18.0033 8.14407 16.7053 8.44482 15.5973 9.04632C14.4892 9.64783 13.6345 10.5105 13.033 11.6344C12.4315 12.7582 12.1307 14.0958 12.1307 15.647H2.37207C2.37207 12.4654 3.09229 9.70323 4.53274 7.36053C5.97319 5.01782 7.9914 3.20539 10.5874 1.92323C13.1833 0.641078 16.175 0 19.5625 0C23.0449 0 26.0761 0.617334 28.6563 1.852C31.2522 3.07084 33.2704 4.76455 34.7109 6.93314C36.1513 9.10172 36.8716 11.5869 36.8716 14.3886C36.8716 16.2248 36.5075 18.0372 35.7794 19.8259C35.067 21.6146 33.7928 23.6012 31.9566 25.7856C30.1205 27.9542 27.5324 30.558 24.1925 33.5972L17.0931 40.5541V40.8865H37.5126V49.2918H2.84694Z" fill="#841431"/>
<path d="M64.0283 50.3602C59.9444 50.3444 56.4304 49.3393 53.4862 47.3448C50.5578 45.3503 48.3021 42.4615 46.7192 38.6784C45.1522 34.8952 44.3765 30.3444 44.3924 25.0258C44.3924 19.723 45.1759 15.2038 46.743 11.4682C48.3259 7.73251 50.5815 4.89119 53.5099 2.94421C56.4541 0.981404 59.9603 0 64.0283 0C68.0964 0 71.5946 0.981404 74.523 2.94421C77.4672 4.90702 79.7308 7.75625 81.3137 11.4919C82.8966 15.2118 83.6802 19.723 83.6643 25.0258C83.6643 30.3602 82.8729 34.919 81.29 38.7021C79.7229 42.4853 77.4751 45.3741 74.5468 47.3685C71.6184 49.363 68.1122 50.3602 64.0283 50.3602ZM64.0283 41.8363C66.8143 41.8363 69.0382 40.4354 70.7003 37.6337C72.3623 34.8319 73.1855 30.6293 73.1696 25.0258C73.1696 21.3376 72.7897 18.2668 72.0299 15.8133C71.286 13.3597 70.2254 11.5157 68.8483 10.281C67.487 9.04632 65.8803 8.42899 64.0283 8.42899C61.2582 8.42899 59.0422 9.81404 57.3801 12.5841C55.7181 15.3542 54.8791 19.5014 54.8633 25.0258C54.8633 28.7614 55.2353 31.8798 55.9792 34.3808C56.739 36.8659 57.8075 38.7338 59.1846 39.9843C60.5618 41.2189 62.1763 41.8363 64.0283 41.8363Z" fill="#841431"/>
<path d="M0.0109221 67.019L0 65.1732H0.278513C0.47511 65.1732 0.644402 65.1258 0.786389 65.0312C0.932016 64.9329 1.05216 64.7745 1.14682 64.5561C1.24148 64.3376 1.31611 64.0482 1.37072 63.6878C1.42533 63.3237 1.46174 62.8759 1.47994 62.3444L1.61647 58.6309H7.99495V67.019H5.77777V60.4603H3.70804L3.57698 63.0215C3.54421 63.7242 3.45866 64.3285 3.32031 64.8346C3.1856 65.3406 2.99811 65.7557 2.75782 66.0797C2.51754 66.4001 2.2281 66.6367 1.88952 66.7896C1.55093 66.9426 1.15774 67.019 0.709934 67.019H0.0109221Z" fill="#5E6D76"/>
<path d="M13.6212 67.1828C12.7583 67.1828 12.0156 67.0081 11.3931 66.6586C10.7742 66.3054 10.2972 65.8067 9.96229 65.1623C9.62735 64.5142 9.45988 63.7478 9.45988 62.8632C9.45988 62.0003 9.62735 61.2431 9.96229 60.5914C10.2972 59.9397 10.7687 59.4318 11.3767 59.0677C11.9883 58.7037 12.7056 58.5216 13.5283 58.5216C14.0817 58.5216 14.5969 58.6108 15.0738 58.7892C15.5544 58.964 15.9731 59.2279 16.3299 59.5811C16.6903 59.9342 16.9706 60.3784 17.1709 60.9136C17.3711 61.4451 17.4712 62.0677 17.4712 62.7812V63.4202H10.3883V61.9785H15.2813C15.2813 61.6435 15.2085 61.3468 15.0629 61.0883C14.9173 60.8298 14.7152 60.6278 14.4567 60.4821C14.2019 60.3329 13.9052 60.2582 13.5666 60.2582C13.2134 60.2582 12.9003 60.3402 12.6273 60.504C12.3579 60.6642 12.1467 60.8808 11.9938 61.1539C11.8409 61.4233 11.7626 61.7236 11.759 62.0549V63.4256C11.759 63.8407 11.8354 64.1993 11.9883 64.5015C12.1449 64.8036 12.3651 65.0367 12.6491 65.2005C12.9331 65.3643 13.2699 65.4462 13.6594 65.4462C13.9179 65.4462 14.1545 65.4098 14.3693 65.337C14.5841 65.2642 14.768 65.155 14.9209 65.0093C15.0738 64.8637 15.1903 64.6853 15.2704 64.4742L17.4221 64.6162C17.3128 65.1331 17.0889 65.5846 16.7504 65.9705C16.4154 66.3528 15.9822 66.6513 15.4506 66.8661C14.9227 67.0773 14.3129 67.1828 13.6212 67.1828Z" fill="#5E6D76"/>
<path d="M18.3422 60.4603V58.6309H25.944V60.4603H23.2408V67.019H21.0236V60.4603H18.3422Z" fill="#5E6D76"/>
<path d="M34.7035 67.1828C33.8443 67.1828 33.1052 67.0008 32.4863 66.6367C31.8711 66.269 31.3978 65.7593 31.0665 65.1076C30.7388 64.456 30.575 63.706 30.575 62.8577C30.575 61.9985 30.7406 61.2449 31.0719 60.5968C31.4069 59.9451 31.882 59.4373 32.4972 59.0732C33.1125 58.7055 33.8443 58.5216 34.6926 58.5216C35.4244 58.5216 36.0651 58.6545 36.6149 58.9203C37.1646 59.1861 37.5997 59.5592 37.9201 60.0398C38.2404 60.5204 38.417 61.0847 38.4498 61.7327H36.2544C36.1925 61.314 36.0287 60.9773 35.7629 60.7224C35.5008 60.4639 35.1568 60.3347 34.7308 60.3347C34.3704 60.3347 34.0555 60.433 33.7861 60.6296C33.5203 60.8226 33.3128 61.1047 33.1635 61.4761C33.0142 61.8474 32.9396 62.297 32.9396 62.8249C32.9396 63.3601 33.0124 63.8152 33.158 64.1902C33.3073 64.5652 33.5166 64.851 33.7861 65.0476C34.0555 65.2442 34.3704 65.3425 34.7308 65.3425C34.9966 65.3425 35.235 65.2879 35.4462 65.1786C35.661 65.0694 35.8376 64.911 35.9759 64.7035C36.1179 64.4924 36.2108 64.2393 36.2544 63.9444H38.4498C38.4134 64.5852 38.2386 65.1495 37.9255 65.6374C37.6161 66.1216 37.1883 66.5002 36.6422 66.7733C36.0961 67.0463 35.4498 67.1828 34.7035 67.1828Z" fill="#5E6D76"/>
<path d="M43.4985 67.019V58.6309H47.0755C48.1094 58.6309 48.9268 58.8275 49.5275 59.2206C50.1282 59.6138 50.4286 60.1727 50.4286 60.8972C50.4286 61.3523 50.2593 61.7309 49.9207 62.0331C49.5821 62.3353 49.1124 62.5391 48.5117 62.6447C49.0141 62.6811 49.4419 62.7958 49.7951 62.9888C50.1519 63.1781 50.4231 63.4238 50.6088 63.726C50.7981 64.0282 50.8927 64.3631 50.8927 64.7308C50.8927 65.2078 50.7653 65.6173 50.5105 65.9596C50.2593 66.3018 49.8897 66.5639 49.4019 66.746C48.9177 66.928 48.3261 67.019 47.627 67.019H43.4985ZM45.6665 65.2769H47.627C47.9511 65.2769 48.2041 65.2005 48.3861 65.0476C48.5718 64.891 48.6646 64.678 48.6646 64.4086C48.6646 64.1101 48.5718 63.8753 48.3861 63.7042C48.2041 63.533 47.9511 63.4475 47.627 63.4475H45.6665V65.2769ZM45.6665 62.0822H47.1246C47.3576 62.0822 47.5561 62.0495 47.7199 61.9839C47.8874 61.9148 48.0148 61.8165 48.1022 61.689C48.1932 61.5616 48.2387 61.4105 48.2387 61.2358C48.2387 60.9773 48.1349 60.7752 47.9274 60.6296C47.7199 60.484 47.4359 60.4112 47.0755 60.4112H45.6665V62.0822Z" fill="#5E6D76"/>
<path d="M54.751 67.1774C54.2158 67.1774 53.7388 67.0845 53.3202 66.8989C52.9015 66.7095 52.5702 66.431 52.3263 66.0633C52.086 65.692 51.9658 65.2296 51.9658 64.6762C51.9658 64.2102 52.0514 63.8188 52.2225 63.5021C52.3936 63.1854 52.6266 62.9305 52.9215 62.7376C53.2164 62.5446 53.5514 62.399 53.9263 62.3007C54.305 62.2024 54.7018 62.1332 55.1169 62.0932C55.6047 62.0422 55.9979 61.9949 56.2964 61.9512C56.595 61.9038 56.8116 61.8347 56.9463 61.7436C57.081 61.6526 57.1484 61.5179 57.1484 61.3395V61.3068C57.1484 60.9609 57.0391 60.6933 56.8207 60.504C56.6059 60.3147 56.3001 60.22 55.9032 60.22C55.4846 60.22 55.1514 60.3129 54.9039 60.4985C54.6563 60.6806 54.4925 60.9099 54.4124 61.1866L52.2607 61.0119C52.3699 60.5022 52.5848 60.0616 52.9051 59.6903C53.2255 59.3153 53.6387 59.0277 54.1448 58.8275C54.6545 58.6236 55.2443 58.5216 55.9142 58.5216C56.3802 58.5216 56.8262 58.5762 57.2521 58.6855C57.6817 58.7947 58.0622 58.964 58.3935 59.1933C58.7284 59.4227 58.9924 59.7176 59.1853 60.078C59.3783 60.4348 59.4748 60.8626 59.4748 61.3614V67.019H57.2685V65.8558H57.203C57.0683 66.1179 56.888 66.3491 56.6623 66.5494C56.4366 66.746 56.1654 66.9007 55.8486 67.0135C55.5319 67.1228 55.166 67.1774 54.751 67.1774ZM55.4172 65.5718C55.7594 65.5718 56.0616 65.5045 56.3237 65.3698C56.5859 65.2314 56.7916 65.0458 56.9408 64.8127C57.0901 64.5797 57.1647 64.3158 57.1647 64.0209V63.1308C57.0919 63.1781 56.9918 63.2218 56.8644 63.2618C56.7406 63.2982 56.6004 63.3328 56.4439 63.3656C56.2873 63.3947 56.1308 63.422 55.9742 63.4475C55.8177 63.4693 55.6757 63.4894 55.5483 63.5076C55.2752 63.5476 55.0368 63.6113 54.8329 63.6987C54.629 63.7861 54.4706 63.9044 54.3578 64.0537C54.2449 64.1993 54.1885 64.3813 54.1885 64.5998C54.1885 64.9165 54.3032 65.1586 54.5325 65.3261C54.7655 65.4899 55.0604 65.5718 55.4172 65.5718Z" fill="#5E6D76"/>
<path d="M66.2382 64.4469L68.51 58.6309H70.2794L67.0083 67.019H65.4628L62.2681 58.6309H64.032L66.2382 64.4469ZM63.5023 58.6309V67.019H61.2796V58.6309H63.5023ZM69.0889 67.019V58.6309H71.2842V67.019H69.0889Z" fill="#5E6D76"/>
<path d="M75.3063 63.9499L78.3262 58.6309H80.6199V67.019H78.4027V61.6836L75.3937 67.019H73.0837V58.6309H75.3063V63.9499Z" fill="#5E6D76"/>
<path d="M85.2645 55.8348L85.0515 63.6659H83.0528L82.8343 55.8348H85.2645ZM84.0521 67.161C83.6917 67.161 83.3823 67.0336 83.1238 66.7787C82.8653 66.5202 82.7379 66.2108 82.7415 65.8503C82.7379 65.4936 82.8653 65.1877 83.1238 64.9329C83.3823 64.678 83.6917 64.5506 84.0521 64.5506C84.398 64.5506 84.702 64.678 84.9641 64.9329C85.2263 65.1877 85.3592 65.4936 85.3628 65.8503C85.3592 66.0906 85.2954 66.3109 85.1717 66.5111C85.0515 66.7077 84.8931 66.8661 84.6965 66.9862C84.4999 67.1027 84.2851 67.161 84.0521 67.161Z" fill="#5E6D76"/>
<path d="M7.26318 13.1862C8.93473 1.15108 29.662 0.616176 30.9992 13.1862C31.3335 24.2185 13.6151 37.9252 7.26318 45.28H33.6737M64.4302 4.49418C45.7089 4.49418 44.0373 45.28 64.4302 45.28C84.8232 45.28 81.4801 4.49418 64.4302 4.49418Z" stroke="white"/>
</svg>
